<?xml version="1.0"?>
<svg xmlns="http://www.w3.org/2000/svg" width="65" height="44" viewBox="0 0 65 44" fill="none"><style>#hover{fill:transparent;transition:fill .3s ease-out}#hover:target{fill:#f5f3f1}</style><path d="M6.5 43V37.2H3.9C3.9 37.2 1 36.8 1 34.4C1 32 1 23.4 1 21.6C1 19.8 3.2 19.1 3.2 19.1C3.2 19.1 3.2 5.9 3.2 3.8C3.2 1.7 6 1 6 1H59C59 1 61.8 1.4 61.8 4C61.8 6.6 61.8 19.1 61.8 19.1C61.8 19.1 64 20 64 22C64 24 64 31.9 64 34.5C64 37.1 60.5 37.2 60.5 37.2H59.4V43H57.3L56.1 38.6V37.2H9.7V38.8L8.6 42.9L6.5 43Z" fill="none" id="hover"/><path d="M32.5 14.1C32.5 12.4 33.8 11.1 35.5 11.1H54.4C56.1 11.1 57.4 12.4 57.4 14.1V15.1V19.1H32.5V15.1V14.1ZM32.5 14.1C32.5 12.4 31.2 11.1 29.5 11.1H10.6C8.9 11.1 7.6 12.4 7.6 14.1V15.1V19.1M59.4 37.2L59.5 43H57.4L56.2 38.8V37.2M61.8 19.1V4C61.8 2.3 60.5 1 58.8 1H6.2C4.5 1 3.2 2.3 3.2 4V19.1H61.8ZM64 25.1V22.1C64 20.4 62.7 19.1 61 19.1H4C2.3 19.1 1 20.4 1 22.1V25.1H64ZM4 37.2H61C62.7 37.2 64 35.9 64 34.2V31.2V25.2H1V31.2V34.2C1 35.9 2.3 37.2 4 37.2ZM6.6 37.2L6.5 43H8.6L9.8 38.8V37.2H6.6Z" stroke="#00bcd4" stroke-miterlimit="10"/></svg>
