<?xml version="1.0"?>
<svg xmlns="http://www.w3.org/2000/svg" width="66" height="47" viewBox="0 0 66 47" xml:space="preserve"><style>#hover{fill:transparent;transition:fill .3s ease-out}#hover:target{fill:#f5f3f1}</style><path fill="none" d="M64.43 26.98c.46-.62.16-1.38-.68-1.38a19.41 19.41 0 0 1-18.5-16.72l-.83-5.82a2.05 2.05 0 0 0-1.13-1.38c-1.06-.46-2.19.15-2.49 1.3-.9 3.68-2.04 9.58-1.81 15.33.29 5.1 3.3 7.39 5.97 8.43l-5.22 19.02h1.29l3.69-10.7.26-.03 13.22-.05V35l3.67 10.76h1.28L58.2 27.59h4.95c.23 0 .83-.15 1.28-.61zm-19.02 6.51-.14-.03 1.96-6.08c1.11.2 1.88.2 1.88.2h6.41l2.17 5.91H45.4zM26.75 26.6v-3.1c0-.97-2-1.47-2-1.47h-1.78l2-16.94s1.78-.13 1.78-.8l-.01-2.21c0-.69-.99-.84-.99-.84H3.35c-1.44 0-1.67.68-1.67.68v2.36c0 .98 1.6.81 1.6.81l1.98 16.94H3.68c-1.58 0-2 2-2 2v2.57H3.2L.8 45.76h1.58l3.77-17.54h16.04l3.86 17.54h1.6L25.23 26.6h1.53zm-13.4-4.74H7.43L5.38 5.09h7.98v16.77zm7.53 0-5.47.11.06-16.88h7.4l-1.99 16.77z" id="hover"/><path fill="none" stroke="#00bcd4" stroke-linejoin="round" stroke-miterlimit="10" d="M61.87 45.76h1.28L58.2 27.59h4.95c.23 0 .83-.15 1.28-.61.46-.62.16-1.38-.68-1.38a19.41 19.41 0 0 1-18.5-16.72l-.83-5.82a2.05 2.05 0 0 0-1.13-1.38c-1.06-.46-2.19.15-2.49 1.3-.9 3.68-2.04 9.58-1.81 15.33.29 5.1 3.3 7.39 5.97 8.43l-5.22 19.02h1.29l3.69-10.7.26-.03 13.22-.05V35l3.67 10.76zM45.4 33.49l-.14-.03 1.96-6.08c1.11.2 1.88.2 1.88.2h6.41l2.17 5.91H45.4zm-.14-.03-.55 1.6m12.97-1.57.51 1.5m-13.24-8.25 2.27.64m8.3.2h2.67M6.52 26.6 2.37 45.76H.8L3.2 26.6m18.73 0 4.14 19.16h1.59l-2.4-19.16m-.5-4.57H3.69a2 2 0 0 0-2 2v2.57h25.07v-2.58a2 2 0 0 0-2-2zm1-20.79H2.68a1 1 0 0 0-1 1V4.1a1 1 0 0 0 1 1h23.07a1 1 0 0 0 1-1V2.24a1 1 0 0 0-1-1zm-19.6 27.1h16.14m-8.93-6.31V5.09m2.1 16.94V5.09M5.28 22.03l-2-16.94m4.11 16.94-2-16.94m15.48 16.94 2-16.94m.11 16.94 2-16.94"/></svg>
