<?xml version="1.0"?>
<svg xmlns="http://www.w3.org/2000/svg" width="65" height="52" viewBox="0 0 65 52" xml:space="preserve"><style>#hover{fill:transparent;transition:fill .3s ease-out}#hover:target{fill:#f5f3f1}</style><path fill="none" d="M5.9 33.69h16.06H5.89zm17.68-19.48-.81-10.55c-.15-1.6-1.4-2.93-3.02-2.93H8.18a3.05 3.05 0 0 0-2.95 2.93l-.8 10.53m1.83 5.58L.74 51.27h1.4l3.43-16.14.32.02h16.58l-.03.06 3.42 16.06h1.4l-5.52-31.5a5.48 5.48 0 0 0 5.52-5.05c0-.15-.07-.22-.22-.22h-.15c-8.62-.88-17.31-.88-26 0-.08 0-.15.15-.15.22a5.5 5.5 0 0 0 5.6 5.05h-.08zm15.7 13.92H5.89v-.04l2.95-13.88h10.32l2.96 13.9-.16.02zm21.2 0h16.06-16.06zm17.68-19.48-.8-10.55C59.87 2.06 58.63.73 57 .73H45.44a3.05 3.05 0 0 0-2.95 2.93l-.8 10.55m1.84 5.56L38 51.27h1.4l3.44-16.14.32.02h16.58l-.03.06 3.42 16.06h1.4L59 19.77a5.48 5.48 0 0 0 5.53-5.05c0-.15-.08-.22-.22-.22h-.15c-8.62-.88-17.32-.88-26.01 0-.08 0-.15.15-.15.22a5.5 5.5 0 0 0 5.6 5.05h-.07zm15.7 13.92H43.15l-.01-.04 2.96-13.88h10.31l2.96 13.9-.16.02z" id="hover"/><path fill="none" stroke="#00bcd4" stroke-linejoin="round" stroke-miterlimit="10" d="m60.84 13.92-.8-10.26C59.87 2.06 58.63.73 57 .73H45.44a3.05 3.05 0 0 0-2.95 2.93l-.8 10.26m1.84 5.85L38 51.27h1.4l3.44-16.14 16.87.08 3.42 16.06h1.4L59 19.77a5.45 5.45 0 0 0 5.5-5.03c0-.15-.05-.24-.2-.24 0 0-17.46-.88-26.15 0-.08 0-.15.15-.15.22a5.43 5.43 0 0 0 5.53 5.05zm15.7 13.92H43.15l-.01-.04 2.96-13.88h10.31l2.96 13.9-.16.02zM46.1 19.77h-2.58m12.9 0H59m.38 13.9.33 1.54m-16.55-1.52-.32 1.44M23.62 13.92 22.8 3.66c-.15-1.6-1.4-2.93-3.03-2.93H8.22a3.05 3.05 0 0 0-2.95 2.93l-.81 10.26m1.84 5.85L.77 51.27h1.4l3.44-16.14 16.87.08 3.42 16.06h1.4l-5.53-31.5a5.45 5.45 0 0 0 5.51-5.03c0-.15-.05-.24-.2-.24 0 0-17.46-.88-26.16 0-.07 0-.15.15-.15.22a5.43 5.43 0 0 0 5.53 5.05zM22 33.7H5.92v-.04l2.95-13.88h10.31l2.96 13.9-.16.02zM8.87 19.77H6.3m12.9 0h2.57m.38 13.9.33 1.54M5.93 33.69l-.32 1.44"/></svg>
