<?xml version="1.0"?>
<svg xmlns="http://www.w3.org/2000/svg" width="82" height="43" viewBox="0 0 82 43" fill="none"><style>#hover{fill:transparent;transition:fill .3s ease-out}#hover:target{fill:#f5f3f1}</style><path d="M1 16V42V42.5H1.5H2H5C5.5 42.5 6.5 42.3 6.5 41.5V32H48.5V41C48.5 42 48.5 42.5 49.5 42.5H55C55.3333 42.5 56 42.3 56 41.5V35H73.5V41C73.5 41.5 73.7 42.5 74.5 42.5H80C80.3333 42.5 81 42.3 81 41.5V1H7.5C5.5 1 3.5 1.5 3.5 4.5V13.5C1.9 13.5 1.16667 15.1667 1 16Z" fill="none" id="hover"/><path d="M80.8824 0.792603H81.3824V0.292603H80.8824V0.792603ZM80.8824 16.125L81.3824 16.125V16.125H80.8824ZM48.4921 42.0548L47.9921 42.0539V42.0548H48.4921ZM6.50001 21.5H47.5V20.5H6.50001V21.5ZM48.5 31.3585H6.50001V32.3585H48.5V31.3585ZM73.7263 34.3658H56.0247V35.3658H73.7263V34.3658ZM80.3823 21.5V42.0174H81.3823V21.5H80.3823ZM80.3823 42.0174C80.3823 41.9257 80.4583 41.8544 80.5434 41.8544V42.8544C81.005 42.8544 81.3823 42.4835 81.3823 42.0174H80.3823ZM80.5434 41.8544H74.0653V42.8544H80.5434V41.8544ZM74.0653 41.8544C74.1503 41.8544 74.2263 41.9257 74.2263 42.0174H73.2263C73.2263 42.4835 73.6036 42.8544 74.0653 42.8544V41.8544ZM74.2263 42.0174V21.5H73.2263V42.0174H74.2263ZM4.17304 3.78805C4.17304 2.41945 5.30229 1.2926 6.68609 1.2926V0.292603C4.75554 0.292603 3.17304 1.86165 3.17304 3.78805H4.17304ZM6.68609 1.2926H51.1286V0.292603H6.68609V1.2926ZM4.17304 13.5V3.78805H3.17304V13.5H4.17304ZM50.6286 0.792603V16H51.6286V0.792603H50.6286ZM80.8824 0.292603H51.1286V1.2926H80.8824V0.292603ZM81.3824 16.125V0.792603H80.3824V16.125H81.3824ZM80.8824 0.292603C76.6544 0.292603 73.2263 3.69635 73.2263 7.90678H74.2263C74.2263 4.25417 77.2012 1.2926 80.8824 1.2926V0.292603ZM73.2263 7.90678V16.5187H74.2263V7.90678H73.2263ZM55.5624 21.5V42.0548H56.5624V21.5H55.5624ZM55.5624 42.0548C55.5624 41.9632 55.6384 41.8918 55.7235 41.8918V42.8918C56.1852 42.8918 56.5624 42.5209 56.5624 42.0548H55.5624ZM55.7235 41.8918H48.8311V42.8918H55.7235V41.8918ZM48.8311 41.8918C48.9162 41.8918 48.9921 41.9632 48.9921 42.0548H47.9921C47.9921 42.5209 48.3694 42.8918 48.8311 42.8918V41.8918ZM48.9921 42.0557L49.0298 21.4635L48.0298 21.4616L47.9921 42.0539L48.9921 42.0557ZM6.00815 41.8544H1.33793V42.8544H6.00815V41.8544ZM1.33793 41.8544C1.38565 41.8544 1.4429 41.877 1.48425 41.9218C1.51973 41.9603 1.53662 42.0073 1.53662 42.0548H0.536621C0.536621 42.4418 0.836037 42.8544 1.33793 42.8544V41.8544ZM1.53662 42.0548V16.1442H0.536621V42.0548H1.53662ZM1.53662 16.1442C1.53662 14.9629 2.47755 14.0232 3.67304 14.0232V13.0232C1.9308 13.0232 0.536621 14.4051 0.536621 16.1442H1.53662ZM3.67304 14.0232C4.86853 14.0232 5.80946 14.9629 5.80946 16.1442H6.80946C6.80946 14.4051 5.41528 13.0232 3.67304 13.0232V14.0232ZM5.80946 16.1442V42.0548H6.80946V16.1442H5.80946ZM5.80946 42.0548C5.80946 41.9661 5.84899 41.9199 5.86278 41.9062C5.87675 41.8923 5.9219 41.8544 6.00815 41.8544V42.8544C6.24506 42.8544 6.44086 42.7416 6.56782 42.6153C6.6946 42.4893 6.80946 42.2934 6.80946 42.0548H5.80946ZM13.3421 7.90678C13.3421 8.24825 13.0628 8.53007 12.7122 8.53007V9.53007C13.6096 9.53007 14.3421 8.80606 14.3421 7.90678H13.3421ZM12.7122 8.53007C12.3615 8.53007 12.0823 8.24825 12.0823 7.90678H11.0823C11.0823 8.80606 11.8148 9.53007 12.7122 9.53007V8.53007ZM12.0823 7.90678C12.0823 7.5653 12.3615 7.28349 12.7122 7.28349V6.28349C11.8148 6.28349 11.0823 7.0075 11.0823 7.90678H12.0823ZM12.7122 7.28349C13.0628 7.28349 13.3421 7.5653 13.3421 7.90678H14.3421C14.3421 7.0075 13.6096 6.28349 12.7122 6.28349V7.28349ZM26.1475 7.90678C26.1475 8.24826 25.8683 8.53007 25.5176 8.53007V9.53007C26.415 9.53007 27.1475 8.80606 27.1475 7.90678H26.1475ZM25.5176 8.53007C25.167 8.53007 24.8878 8.24826 24.8878 7.90678H23.8878C23.8878 8.80606 24.6203 9.53007 25.5176 9.53007V8.53007ZM24.8878 7.90678C24.8878 7.5653 25.167 7.28349 25.5176 7.28349V6.28349C24.6203 6.28349 23.8878 7.0075 23.8878 7.90678H24.8878ZM25.5176 7.28349C25.8683 7.28349 26.1475 7.5653 26.1475 7.90678H27.1475C27.1475 7.0075 26.415 6.28349 25.5176 6.28349V7.28349ZM39.7063 7.90678C39.7063 8.24825 39.427 8.53007 39.0764 8.53007V9.53007C39.9738 9.53007 40.7063 8.80606 40.7063 7.90678H39.7063ZM39.0764 8.53007C38.7257 8.53007 38.4465 8.24825 38.4465 7.90678H37.4465C37.4465 8.80606 38.179 9.53007 39.0764 9.53007V8.53007ZM38.4465 7.90678C38.4465 7.5653 38.7257 7.28349 39.0764 7.28349V6.28349C38.179 6.28349 37.4465 7.0075 37.4465 7.90678H38.4465ZM39.0764 7.28349C39.427 7.28349 39.7063 7.5653 39.7063 7.90678H40.7063C40.7063 7.0075 39.9738 6.28349 39.0764 6.28349V7.28349ZM57.4079 7.90678C57.4079 8.24826 57.1287 8.53007 56.778 8.53007V9.53007C57.6754 9.53007 58.4079 8.80606 58.4079 7.90678H57.4079ZM56.778 8.53007C56.4274 8.53007 56.1481 8.24825 56.1481 7.90678H55.1481C55.1481 8.80606 55.8806 9.53007 56.778 9.53007V8.53007ZM56.1481 7.90678C56.1481 7.5653 56.4274 7.28349 56.778 7.28349V6.28349C55.8806 6.28349 55.1481 7.0075 55.1481 7.90678H56.1481ZM56.778 7.28349C57.1287 7.28349 57.4079 7.5653 57.4079 7.90678H58.4079C58.4079 7.0075 57.6754 6.28349 56.778 6.28349V7.28349ZM69.1646 7.9068C69.1646 8.24827 68.8853 8.53009 68.5347 8.53009V9.53009C69.4321 9.53009 70.1646 8.80608 70.1646 7.9068H69.1646ZM68.5347 8.53009C68.184 8.53009 67.9048 8.24828 67.9048 7.9068H66.9048C66.9048 8.80608 67.6373 9.53009 68.5347 9.53009V8.53009ZM67.9048 7.9068C67.9048 7.56532 68.184 7.28351 68.5347 7.28351V6.28351C67.6373 6.28351 66.9048 7.00752 66.9048 7.9068H67.9048ZM68.5347 7.28351C68.8853 7.28351 69.1646 7.56533 69.1646 7.9068H70.1646C70.1646 7.00752 69.4321 6.28351 68.5347 6.28351V7.28351ZM81.3823 21.5L81.3824 16.125L80.3824 16.125L80.3823 21.5L81.3823 21.5ZM80.8824 15.625H48.9154V16.625H80.8824V15.625ZM48.9154 15.625C47.4469 15.625 46.3571 16.9991 46.3571 18.5438H47.3571C47.3571 17.4009 48.1385 16.625 48.9154 16.625V15.625ZM46.3571 18.5438V19.0812H47.3571V18.5438H46.3571ZM46.3571 19.0812C46.3571 20.6321 47.4523 22 48.9528 22V21C48.1332 21 47.3571 20.2179 47.3571 19.0812H46.3571ZM48.9528 22H80.8823V21H48.9528V22ZM47.9999 16.0187H6.49994V17.0187H47.9999V16.0187Z" fill="#00bcd4"/></svg>
