<?xml version="1.0"?>
<svg xmlns="http://www.w3.org/2000/svg" width="69" height="32" viewBox="0 0 69 32" fill="none"><style>#hover{fill:transparent;transition:fill .3s ease-out}#hover:target{fill:#f5f3f1}</style><path d="M66 20V13.5H67C67.5431 13.5 67.5 12.9619 67.5 12.5C67.6639 10.1261 67.7739 7.36175 67.5 5C67.2484 2.83095 64.3499 2.91889 62.6817 2.62609C50.1468 0.425924 18.2068 0.45869 5.6832 2.72289C3.832 3.05757 1.18811 3.10619 1.00867 4.98413C1.00293 5.04421 1 5.10481 1 5.16574V12.3708C1 12.925 1.45258 13.3869 1.99569 13.3869H2.77436V19.4458H3.55217V22.3032H5.63846L5.5 31.5H8C8 31.5 7.68078 24.2241 8 22.3032H60.1693L60.5 31.5H63L63.3615 22.3032H65V20H66Z" fill="none" id="hover"/><path d="M66.0222 19.9929V20.4929C66.2984 20.4929 66.5222 20.269 66.5222 19.9929H66.0222ZM2.47755 19.9929H1.97755C1.97755 20.269 2.20141 20.4929 2.47755 20.4929V19.9929ZM64.9999 22.5V23C65.2761 23 65.4999 22.7761 65.4999 22.5H64.9999ZM3.49991 22.5H2.99991C2.99991 22.7761 3.22377 23 3.49991 23V22.5ZM62.8025 2.44279L62.7122 2.93456V2.93456L62.8025 2.44279ZM4.95743 2.53228L4.86446 2.041L4.95743 2.53228ZM0.82855 4.62283L0.330621 4.57738L0.82855 4.62283ZM67.488 4.65955L66.9911 4.71462L67.488 4.65955ZM60.4999 31.5H59.9999C59.9999 31.7761 60.2238 32 60.4999 32V31.5ZM62.9999 31.5V32C63.2761 32 63.4999 31.7761 63.4999 31.5H62.9999ZM7.99991 31.5V32C8.27605 32 8.49991 31.7761 8.49991 31.5H7.99991ZM5.49991 31.5H4.99991C4.99991 31.7761 5.22377 32 5.49991 32V31.5ZM65.5222 13.3913V19.9929H66.5222V13.3913H65.5222ZM2.97755 19.9929V13.3913H1.97755V19.9929H2.97755ZM64.4999 19.9929V22.5H65.4999V19.9929H64.4999ZM3.99991 22.5V20.0053H2.99991V22.5H3.99991ZM0.330621 4.57738C0.324183 4.6479 0.320892 4.71909 0.320892 4.79073H1.32089C1.32089 4.74971 1.32278 4.70886 1.32648 4.66828L0.330621 4.57738ZM0.320892 4.79073V12.4519H1.32089V4.79073H0.320892ZM0.320892 12.4519C0.320892 13.2089 0.913965 13.8913 1.70035 13.8913V12.8913C1.52733 12.8913 1.32089 12.7197 1.32089 12.4519H0.320892ZM1.70035 13.8913H66.7005V12.8913H1.70035V13.8913ZM66.7005 13.8913C67.5176 13.8913 68 13.1749 68 12.5373H67C67 12.6303 66.9636 12.7268 66.9036 12.7954C66.8485 12.8585 66.7813 12.8913 66.7005 12.8913V13.8913ZM68 12.5373V4.87613H67V12.5373H68ZM68 4.87613C68 4.78439 67.9949 4.69373 67.985 4.60448L66.9911 4.71462C66.997 4.76768 67 4.82158 67 4.87613H68ZM62.8929 1.95102C57.3061 0.924625 45.5672 0.424811 33.8756 0.439779C22.1844 0.454748 10.4471 0.98456 4.86446 2.041L5.05039 3.02356C10.5295 1.98673 22.1789 1.45476 33.8769 1.43978C45.5744 1.4248 57.2273 1.92688 62.7122 2.93456L62.8929 1.95102ZM1.32648 4.66828C1.35482 4.35787 1.47409 4.14144 1.65482 3.9699C1.84717 3.78733 2.12807 3.63887 2.4961 3.51729C2.86219 3.39634 3.28131 3.31243 3.72657 3.23858C4.15358 3.16776 4.63733 3.10173 5.05039 3.02356L4.86446 2.041C4.45996 2.11755 4.03864 2.17317 3.56296 2.25206C3.10552 2.32792 2.62434 2.42177 2.18241 2.56776C1.74242 2.71311 1.30759 2.92076 0.966403 3.24459C0.613603 3.57944 0.381529 4.0197 0.330621 4.57738L1.32648 4.66828ZM59.9999 22.5V31.5H60.9999V22.5H59.9999ZM60.4999 32H62.9999V31H60.4999V32ZM63.4999 31.5V22.5H62.4999V31.5H63.4999ZM7.49991 22.5V31.5H8.49991V22.5H7.49991ZM7.99991 31H5.49991V32H7.99991V31ZM5.99991 31.5V22.5H4.99991V31.5H5.99991ZM66.0222 19.4929H2.47755V20.4929H66.0222V19.4929ZM64.9999 22H3.49991V23H64.9999V22ZM67.985 4.60448C67.8384 3.28166 66.7586 2.70291 65.7498 2.41934C65.2338 2.27431 64.6856 2.19005 64.1895 2.12554C63.6762 2.0588 63.2442 2.01557 62.8929 1.95102L62.7122 2.93456C63.0976 3.00536 63.5918 3.05624 64.0605 3.11719C64.5464 3.18037 65.0357 3.25738 65.4792 3.38203C66.3892 3.63783 66.9155 4.03212 66.9911 4.71462L67.985 4.60448Z" fill="#00bcd4"/></svg>
