<?xml version="1.0"?>
<svg xmlns="http://www.w3.org/2000/svg" width="36" height="46" viewBox="0 0 36 46" fill="none"><style>#hover{fill:transparent;transition:fill .3s ease-out}#hover:target{fill:#f5f3f1}</style><path d="M26 45.5c-.5 0-1.5-.5-1.5-1.5 0-2.22 3-1.73 3 .5 0 .5-1 1-1.5 1ZM18 33H8.5c-2 0-6.5-2-7-6.5S1 20.5 1 18c0-2 2-3.17 3-3.5-.33-2.83-1-8.7-1-9.5 0-1 1.5-4 4.5-4h21c1.5 0 4 1 4 4.5 0 2.8-.67 7.17-1 9 1 0 3 .7 3 3.5 0 3.5-.5 9-1 10s-2 5-7 5H18ZM8.5 44c0 1 1 1.5 1.5 1.5s1.5-.5 1.5-1c0-2.23-3-2.72-3-.5Z" fill="none" id="hover"/><path d="M18 41.45h.5-.5ZM32.44 5.06l.5.05v-.05h-.5Zm-.82 9.38-.02.5.02-.5ZM27.91 25.8l-.43-.25.43.25Zm.38-1.14.5.07v-.07h-.5Zm.01-7.39-.5-.08v.08h.5Zm1.12-2.07.31.39-.31-.4Zm3.39-.45.2-.46-.2.46Zm1.72 4.65-.5-.06v.02l.5.04Zm-.72 8.15.5.08v-.04l-.5-.04Zm-.25.9-.46-.22.46.21ZM7.7 25.78l.44-.25-.44.25Zm-.38-1.14h-.5v.07l.5-.07Zm0-7.39h.5v-.04l-.01-.04-.5.08ZM6.2 15.2l-.32.39.32-.4Zm-3.4-.45-.2-.46.2.46ZM1.1 19.39l.5-.04v-.02l-.5.06Zm.72 8.15-.5.04v.04l.5-.08Zm.26.9.45-.22-.45.21ZM3.09 5.05h-.5v.05l.5-.05Zm15.53 36.97c.1 0 .08.05 0-.07a.97.97 0 0 1-.12-.5h-1c0 .4.1.75.28 1.03.16.26.44.54.84.54v-1Zm7.38 0h-7.38v1H26v-1Zm-7.5-.58V33.5h-1v7.95h1Zm-1.12 1.58c.4 0 .68-.28.84-.54.18-.28.28-.64.28-1.04h-1c0 .24-.06.41-.12.51-.08.12-.1.07 0 .07v1Zm-7.38 0h7.38v-1H10v1ZM28.53 1.68a3.4 3.4 0 0 1 3.4 3.38h1a4.4 4.4 0 0 0-4.4-4.38v1Zm3.4 3.34-.8 9.38 1 .09.8-9.38-1-.09Zm-3.19 16.74-.2-.12-.48.89.2.1.48-.87Zm-.2-.12c-3.35-1.78-6.89-2.09-10.54-2.09v1c3.6 0 6.94.3 10.06 1.98l.47-.89ZM18 19.55c-3.73 0-7.56.26-10.93 2.31l.52.86c3.11-1.9 6.7-2.17 10.41-2.17v-1ZM7.07 21.86l-.18.12.53.84.17-.1-.52-.86Zm19.16 5.77c.44 0 .85-.2 1.19-.47.35-.28.66-.67.92-1.12l-.86-.5c-.22.37-.46.65-.69.84-.23.19-.43.25-.56.25v1Zm2.11-1.6c.24-.4.38-.86.45-1.3l-1-.16c-.05.35-.15.68-.31.97l.86.5Zm.45-1.38v-2.57h-1v2.56h1Zm0-2.57.01-4.82h-1v4.82h1Zm0-4.74c.11-.7.43-1.34.94-1.76l-.63-.78a3.82 3.82 0 0 0-1.3 2.38l1 .16Zm.94-1.76c.54-.44 1.2-.67 1.87-.64l.05-1a3.73 3.73 0 0 0-2.55.86l.63.78Zm1.87-.64c.33.02.67.1 1 .25l.42-.9c-.45-.21-.91-.32-1.37-.35l-.05 1Zm1 .25c.72.33 1.12.82 1.33 1.46.22.68.24 1.56.1 2.68l1 .13a7.33 7.33 0 0 0-.15-3.12c-.3-.91-.9-1.6-1.86-2.06l-.42.91Zm1.43 4.16-.71 8.15 1 .08.71-8.14-1-.09Zm-.71 8.11c-.04.27-.11.53-.22.76l.91.42c.15-.33.24-.68.3-1.02l-1-.16Zm-.22.76a7.23 7.23 0 0 1-3.12 3.5c-1.27.7-2.75.99-4.34.99v1c1.7 0 3.36-.32 4.82-1.11a8.23 8.23 0 0 0 3.55-3.96l-.91-.42Zm-23.7-1.6c-.14 0-.33-.05-.57-.24a3.02 3.02 0 0 1-.68-.84l-.87.5c.26.45.58.84.92 1.12.35.27.76.47 1.2.47v-1Zm-1.25-1.08a2.78 2.78 0 0 1-.33-.97l-.98.15c.06.45.2.9.44 1.32l.87-.5Zm-.32-.9V22.3h-1v2.36h1Zm0-2.35v-5.03h-1v5.03h1Zm-.01-5.1a3.82 3.82 0 0 0-1.3-2.39l-.63.78c.51.42.83 1.06.94 1.76l.99-.16Zm-1.3-2.39c-.71-.59-1.62-.9-2.54-.86l.04 1c.67-.03 1.34.2 1.87.64l.64-.78Zm-2.54-.86c-.46.03-.93.14-1.37.34l.42.91c.32-.15.66-.23 1-.25l-.05-1Zm-1.37.34a3.33 3.33 0 0 0-1.87 2.06 7.33 7.33 0 0 0-.15 3.11l1-.12c-.14-1.12-.12-2 .1-2.68.21-.64.62-1.13 1.34-1.46l-.42-.9ZM.59 19.44l.72 8.14 1-.08-.72-8.15-1 .09Zm.73 8.18c.05.34.14.69.3 1.02l.9-.42c-.1-.23-.17-.49-.22-.76l-.98.16Zm.3 1.02a8.23 8.23 0 0 0 3.54 3.96c1.46.8 3.12 1.1 4.83 1.1v-1a8.97 8.97 0 0 1-4.35-.98 7.23 7.23 0 0 1-3.12-3.5l-.9.42ZM7 .68a4.4 4.4 0 0 0-4.41 4.38h1A3.4 3.4 0 0 1 7 1.68v-1ZM2.6 5.11l.9 9.38 1-.1-.91-9.38-1 .1ZM11 44a1 1 0 0 1-1 1v1a2 2 0 0 0 2-2h-1Zm-1 1a1 1 0 0 1-1-1H8c0 1.1.9 2 2 2v-1Zm-1-1a1 1 0 0 1 1-1v-1a2 2 0 0 0-2 2h1Zm1-1a1 1 0 0 1 1 1h1a2 2 0 0 0-2-2v1Zm17 1a1 1 0 0 1-1 1v1a2 2 0 0 0 2-2h-1Zm-1 1a1 1 0 0 1-1-1h-1c0 1.1.9 2 2 2v-1Zm-1-1a1 1 0 0 1 1-1v-1a2 2 0 0 0-2 2h1Zm1-1a1 1 0 0 1 1 1h1a2 2 0 0 0-2-2v1ZM9.4 27.63h16.83v-1H9.39v1Zm16.24 5.08H9.99v1h15.65v-1ZM7 1.68h21.53v-1H7v1Z" fill="#00bcd4"/></svg>
