<?xml version="1.0"?>
<svg xmlns="http://www.w3.org/2000/svg" width="48" height="40" viewBox="0 0 48 40" fill="none"><style>#hover{fill:transparent;transition:fill .3s ease-out}#hover:target{fill:#f5f3f1}</style><path d="M6.9 33.7V35.3L5.9 39.5H4V33.7H1C1 33.7 1 19 1 15C1 11 6 11.7 6 11.7V3.3C6 3.3 6.2 0.5 9.2 0.5C12.2 0.5 39.2 0.5 39.2 0.5C39.2 0.5 42 1.1 42 3.1C42 5.1 42 11.7 42 11.7C42 11.7 47 11.5 47 14.8C47 18.1 47 33.7 47 33.7H43.9V39.5H42L41 35.2V33.7H6.9Z" fill="none" id="hover"/><path d="M6 11.6V3.5C6 1.8 7.3 0.5 9 0.5H39C40.7 0.5 42 1.8 42 3.5V11.6M4.1 33.7L4 39.5H5.9L6.9 35.3V33.7M39 33.7H47V15C47 13.1 45.2 11.5 43 11.5C40.8 11.5 39 13 39 15V33.7ZM39 33.7H9M9 33.7H1V15C1 13.1 2.8 11.5 5 11.5C7.2 11.5 9 13.1 9 15V33.7ZM43.8 33.7L43.9 39.5H42L41 35.3V33.7M9 25.6H39M39 21.6C39 19.9 37.7 18.6 36 18.6H12C10.3 18.6 9 19.9 9 21.6" stroke="#00bcd4" stroke-miterlimit="10"/></svg>
