<?xml version="1.0"?>
<svg xmlns="http://www.w3.org/2000/svg" width="63" height="47" viewBox="0 0 63 47" fill="none"><style>#hover{fill:transparent;transition:fill .3s ease-out}#hover:target{fill:#f5f3f1}</style><path d="M7.85657 11.9889C9.69689 12.3238 11.5477 12.5739 13.4036 12.7401H13.6311C13.3076 9.92402 12.8564 7.11948 12.2773 4.33562L12.0511 3.24855C11.7831 1.95995 12.8746 0.802619 14.1451 1.02835L21.5805 2.34932C31.7933 4.16376 42.2361 4.16376 52.449 2.34932L59.8651 1.03178C61.1408 0.805141 62.2341 1.97222 61.9565 3.26416L61.8371 3.81998C59.0099 16.977 59.0448 30.6077 61.9393 43.7495C62.2244 45.044 61.2898 45.9914 59.8499 45.9914L14.131 46C13.0171 46 11.7741 45.0749 12.0351 43.7888L11.8176 43.9774L2.52724 43.9792C1.62103 44.1442 0.841142 43.3013 1.02786 42.3587L1.26682 41.1526C3.07772 32.0114 3.05533 22.5763 1.20109 13.4446L1.03932 12.6479C0.84756 11.7035 1.62845 10.8554 2.53737 11.0208L7.85657 11.9889Z" fill="none" id="hover"/><path d="M7.85657 11.9889L7.76704 12.4808L7.76705 12.4808L7.85657 11.9889ZM2.53737 11.0208L2.6269 10.5289L2.62689 10.5289L2.53737 11.0208ZM1.03932 12.6479L0.549314 12.7474L0.549316 12.7474L1.03932 12.6479ZM1.20109 13.4446L1.69109 13.3451L1.69109 13.3451L1.20109 13.4446ZM1.26682 41.1526L1.75728 41.2498L1.75728 41.2498L1.26682 41.1526ZM1.02786 42.3587L0.537393 42.2616L0.537392 42.2616L1.02786 42.3587ZM2.52724 43.9792L2.52714 43.4792L2.48206 43.4792L2.43771 43.4873L2.52724 43.9792ZM59.8499 45.9914V45.4914H59.8498L59.8499 45.9914ZM14.131 46V46.5H14.1311L14.131 46ZM12.0351 43.7888L12.5251 43.8883H12.5251L12.0351 43.7888ZM12.3691 42.1431L12.8591 42.2425L12.3691 42.1431ZM12.2773 4.33562L12.7668 4.23379V4.23379L12.2773 4.33562ZM12.0511 3.24855L11.5616 3.35038V3.35038L12.0511 3.24855ZM14.1451 1.02835L14.0576 1.52064L14.0577 1.52064L14.1451 1.02835ZM21.5805 2.34932L21.6679 1.85703V1.85703L21.5805 2.34932ZM52.449 2.34932L52.3616 1.85703V1.85703L52.449 2.34932ZM59.8651 1.03178L59.9526 1.52407L59.9526 1.52407L59.8651 1.03178ZM61.9565 3.26416L61.4677 3.15912V3.15912L61.9565 3.26416ZM61.8371 3.81998L62.3259 3.92503V3.92503L61.8371 3.81998ZM61.9393 43.7495L61.451 43.8571V43.8571L61.9393 43.7495ZM13.4482 12.2421C11.6073 12.0773 9.77145 11.8292 7.94609 11.497L7.76705 12.4808C9.62232 12.8184 11.4881 13.0706 13.359 13.2381L13.4482 12.2421ZM7.9461 11.497L2.6269 10.5289L2.44784 11.5127L7.76704 12.4808L7.9461 11.497ZM2.62689 10.5289C1.33397 10.2936 0.294617 11.493 0.549314 12.7474L1.52932 12.5484C1.4005 11.914 1.92292 11.4172 2.44784 11.5127L2.62689 10.5289ZM0.549316 12.7474L0.711093 13.5441L1.69109 13.3451L1.52931 12.5484L0.549316 12.7474ZM0.711092 13.5441C2.55215 22.6109 2.57439 31.9792 0.776348 41.0555L1.75728 41.2498C3.58106 32.0436 3.5585 22.5417 1.69109 13.3451L0.711092 13.5441ZM0.776349 41.0554L0.537393 42.2616L1.51833 42.4559L1.75728 41.2498L0.776349 41.0554ZM0.537392 42.2616C0.289358 43.5136 1.32779 44.7057 2.61677 44.4711L2.43771 43.4873C1.91426 43.5826 1.39293 43.0889 1.51833 42.4559L0.537392 42.2616ZM2.52733 44.4792L11.8177 44.4774L11.8176 43.4774L2.52714 43.4792L2.52733 44.4792ZM5.29103 16.2383C4.44305 15.6729 3.60703 15.1414 2.9137 14.5302C2.22585 13.9237 1.72713 13.2788 1.5221 12.5178L0.556533 12.778C0.832996 13.804 1.48943 14.6076 2.25237 15.2802C3.00984 15.9481 3.92025 16.5263 4.73633 17.0703L5.29103 16.2383ZM59.8498 45.4914L14.1309 45.5L14.1311 46.5L59.85 46.4914L59.8498 45.4914ZM14.131 45.5C13.7018 45.5 13.2348 45.3176 12.9098 45.0123C12.5955 44.717 12.435 44.3325 12.5251 43.8883L11.5451 43.6894C11.3743 44.5313 11.7047 45.2523 12.2251 45.7411C12.7348 46.2198 13.4462 46.5 14.131 46.5V45.5ZM12.5251 43.8883L12.8591 42.2425L11.8791 42.0437L11.5451 43.6894L12.5251 43.8883ZM12.8591 42.2425C15.404 29.703 15.3725 16.7603 12.7668 4.23379L11.7877 4.43745C14.3659 16.8312 14.397 29.6369 11.8791 42.0437L12.8591 42.2425ZM12.7668 4.23379L12.5407 3.14672L11.5616 3.35038L11.7877 4.43745L12.7668 4.23379ZM12.5407 3.14672C12.3411 2.18741 13.1525 1.35983 14.0576 1.52064L14.2326 0.536063C12.5967 0.245406 11.2251 1.73248 11.5616 3.35038L12.5407 3.14672ZM14.0577 1.52064L21.493 2.84161L21.6679 1.85703L14.2326 0.536062L14.0577 1.52064ZM21.493 2.84161C31.7637 4.66633 42.2658 4.66633 52.5365 2.84161L52.3616 1.85703C42.2065 3.66119 31.8229 3.66119 21.6679 1.85703L21.493 2.84161ZM52.5365 2.84161L59.9526 1.52407L59.7776 0.539491L52.3616 1.85703L52.5365 2.84161ZM59.9526 1.52407C60.8613 1.36262 61.6744 2.19724 61.4677 3.15912L62.4454 3.36921C62.7939 1.74719 61.4202 0.247658 59.7776 0.539492L59.9526 1.52407ZM61.4677 3.15912L61.3482 3.71494L62.3259 3.92503L62.4454 3.3692L61.4677 3.15912ZM61.3482 3.71494C58.506 16.9421 58.541 30.6453 61.451 43.8571L62.4276 43.642C59.5485 30.5702 59.5138 17.012 62.3259 3.92503L61.3482 3.71494ZM61.451 43.8571C61.5608 44.3558 61.4333 44.7433 61.1786 45.0119C60.9147 45.2902 60.4641 45.4914 59.8499 45.4914V46.4914C60.6757 46.4914 61.4123 46.2188 61.9043 45.6999C62.4057 45.1712 62.6028 44.4377 62.4276 43.642L61.451 43.8571ZM11.6153 3.49355C12.8638 5.71472 14.9372 9.09612 17.1046 12.0279C18.1878 13.4931 19.3028 14.8574 20.3569 15.9106C21.3915 16.9444 22.4353 17.7492 23.3787 17.9851L23.6213 17.0149C22.9647 16.8508 22.0877 16.2263 21.0637 15.2032C20.0591 14.1994 18.9774 12.879 17.9087 11.4335C15.7725 8.54385 13.7214 5.19953 12.487 3.00354L11.6153 3.49355Z" fill="#00bcd4"/></svg>
