<?xml version="1.0"?>
<svg xmlns="http://www.w3.org/2000/svg" width="74" height="33" viewBox="0 0 74 33" fill="none"><style>#hover{fill:transparent;transition:fill .3s ease-out}#hover:target{fill:#f5f3f1}</style><path d="M7.3 32C7.3 32 1 31.9 1 27.4V15.1L7.7 3.80001C7.7 3.80001 10 1.00001 13.8 1.00001C17.6 0.900011 60.4 1.00001 60.4 1.00001C60.4 1.00001 63.7 1.30001 65.3 2.90001C66.9 4.50001 72.2 13.7 72.2 13.7C72.2 13.7 72.9 14.9 72.9 17.1C72.9 19.3 72.9 26.5 72.9 26.5C72.9 26.5 72.7 32 68 32C63.3 32 7.3 32 7.3 32Z" fill="none" id="hover"/><path d="M1 16.2V26.8C1 29.6 3.4 32 6.3 32H67.8C70.7 32 73.1 29.6 73.1 26.7V15.7M10.3 20V32M20.8 20V32M31.3 20V32M41.8 20V32M52.3 20V32M62.8 20V32M72.4 14.1L71.8 13.8L69.5 12.5C66.6 10.9 63.1 10.9 60.2 12.5C57.3 14.1 53.8 14.1 50.9 12.5C48 10.9 44.5 10.9 41.6 12.5C38.7 14.1 35.2 14.1 32.3 12.5C29.4 10.9 25.9 10.9 23 12.5C20.1 14.1 16.6 14.1 13.7 12.5C10.8 10.9 7.3 10.9 4.4 12.5L2.1 13.8L1.5 14.1M5.8 7L9.9 5.5C12.4 4.5 15.2 4.5 17.7 5.5C20.2 6.5 23 6.5 25.5 5.5C28 4.5 30.8 4.5 33.3 5.5C35.8 6.5 38.6 6.5 41.1 5.5C43.6 4.5 46.4 4.5 48.9 5.5C51.4 6.5 54.2 6.5 56.7 5.5C59.2 4.5 62 4.5 64.5 5.5L68.2 7M7.1 4.8C8.5 2.4 11.1 1 13.9 1H60.2C63 1 65.5 2.4 67 4.8L72.5 13.9C74 16.6 72.1 20 69 20H5C1.9 20 0 16.6 1.6 13.9L7.1 4.8Z" stroke="#00bcd4" stroke-miterlimit="10"/></svg>
